<?xml version="1.0" encoding="utf-8"?>
<!-- Generator: Adobe Illustrator 24.2.1, SVG Export Plug-In . SVG Version: 6.00 Build 0)  -->
<svg version="1.1" xmlns="http://www.w3.org/2000/svg" xmlns:xlink="http://www.w3.org/1999/xlink" x="0px" y="0px"
	 viewBox="0 0 90 90" style="enable-background:new 0 0 90 90;" xml:space="preserve">
<style type="text/css">
	.st0{fill:#3A3A3A;}
	.st1{opacity:0.4;}
	.st2{fill:#D66F58;}
	.st3{fill:#E2D05F;}
	.st4{fill:#77A89A;}
	.st5{opacity:0.4;fill:#77A89A;}
	.st6{opacity:0.4;fill:#D66F58;}
	.st7{opacity:0.4;fill:#E2D05F;}
	.st8{fill:none;stroke:#FFFFFF;stroke-width:2;}
	.st9{fill:#192423;}
	.st10{opacity:0.1;fill:#FFFFFF;}
	.st11{fill:#746132;}
	.st12{fill:none;stroke:#FFFFFF;stroke-width:1.5;stroke-miterlimit:10;}
	.st13{opacity:0.5;fill:#E2D05F;}
	.st14{fill:#904836;}
	.st15{fill:#3D5782;}
	.st16{fill:#494646;}
	.st17{fill:#8DA6BA;}
	.st18{fill:#191A15;}
	.st19{fill:#718B84;}
	.st20{fill:#324D67;}
	.st21{fill:#743F32;}
	.st22{fill:#4B4F4D;}
	.st23{fill:#B2B9BD;}
	.st24{opacity:0.6;fill:#FFFFFF;}
	.st25{opacity:0.6;}
	.st26{fill:#FFFFFF;}
	.st27{fill:#F2F2F2;}
	.st28{opacity:0.5;}
	.st29{opacity:0.7;fill:#FFFFFF;}
	.st30{opacity:0.5;fill:#FFFFFF;}
	.st31{fill:#8C9191;}
	.st32{fill:#303A39;}
	.st33{opacity:0;}
	.st34{fill:#B47133;}
	.st35{opacity:0.1;}
	.st36{opacity:0.3;fill:#FFFFFF;}
	.st37{opacity:0.3;}
</style>
<g id="Camada_3">
</g>
<g id="Camada_1">
</g>
<g id="Camada_2">
	<g>
		<g>
			<path class="st11" d="M42.7,35.4c-10.1-1.1-18.6,6.4-21.8,9.8c3.2,3.3,11.7,10.8,21.8,9.8c5.8-0.6,11.3-3.9,16.5-9.8
				C54,39.2,48.5,36,42.7,35.4z"/>
			<path class="st11" d="M44.8,2C21,2,1.6,21.4,1.6,45.2S21,88.4,44.8,88.4S88,69,88,45.2S68.6,2,44.8,2z M74.2,59.2l-4.4,2.2
				c-2.4-4.8-4.9-8.9-7.4-12.4C56.4,55.4,50,59.1,43.2,59.8c-15.6,1.6-27-12.5-27.5-13.1l-1.2-1.5l1.2-1.5
				c0.5-0.6,11.9-14.7,27.5-13.1c6.8,0.7,13.2,4.3,19.2,10.8c2.6-3.5,5-7.6,7.4-12.4l4.4,2.2c-2.7,5.4-5.6,10.1-8.6,14
				C68.6,49,71.5,53.7,74.2,59.2z"/>
		</g>
	</g>
</g>
<g id="Camada_4">
</g>
<g id="Camada_5">
</g>
<g id="_x31_4_x2B_">
</g>
<g id="_x33_96">
</g>
<g id="_x36_9_x2B_">
</g>
</svg>
