<?xml version="1.0" encoding="utf-8"?>
<!-- Generator: Adobe Illustrator 24.2.1, SVG Export Plug-In . SVG Version: 6.00 Build 0)  -->
<svg version="1.1" xmlns="http://www.w3.org/2000/svg" xmlns:xlink="http://www.w3.org/1999/xlink" x="0px" y="0px"
	 viewBox="0 0 90 90" style="enable-background:new 0 0 90 90;" xml:space="preserve">
<style type="text/css">
	.st0{fill:#3A3A3A;}
	.st1{opacity:0.4;}
	.st2{fill:#D66F58;}
	.st3{fill:#E2D05F;}
	.st4{fill:#77A89A;}
	.st5{opacity:0.4;fill:#77A89A;}
	.st6{opacity:0.4;fill:#D66F58;}
	.st7{opacity:0.4;fill:#E2D05F;}
	.st8{fill:none;stroke:#FFFFFF;stroke-width:2;}
	.st9{fill:#192423;}
	.st10{opacity:0.1;fill:#FFFFFF;}
	.st11{fill:#746132;}
	.st12{fill:none;stroke:#FFFFFF;stroke-width:1.5;stroke-miterlimit:10;}
	.st13{opacity:0.5;fill:#E2D05F;}
	.st14{fill:#904836;}
	.st15{fill:#3D5782;}
	.st16{fill:#494646;}
	.st17{fill:#8DA6BA;}
	.st18{fill:#191A15;}
	.st19{fill:#718B84;}
	.st20{fill:#324D67;}
	.st21{fill:#743F32;}
	.st22{fill:#4B4F4D;}
	.st23{fill:#B2B9BD;}
	.st24{opacity:0.6;fill:#FFFFFF;}
	.st25{opacity:0.6;}
	.st26{fill:#FFFFFF;}
	.st27{fill:#F2F2F2;}
	.st28{opacity:0.5;}
	.st29{opacity:0.7;fill:#FFFFFF;}
	.st30{opacity:0.5;fill:#FFFFFF;}
	.st31{fill:#8C9191;}
	.st32{fill:#303A39;}
	.st33{opacity:0;}
	.st34{fill:#B47133;}
	.st35{opacity:0.1;}
	.st36{opacity:0.3;fill:#FFFFFF;}
	.st37{opacity:0.3;}
</style>
<g id="Camada_3">
</g>
<g id="Camada_1">
</g>
<g id="Camada_2">
	<g>
		<g>
			<path class="st14" d="M45,2C21.3,2,2,21.3,2,45c0,23.7,19.3,43,43,43s43-19.3,43-43C88,21.3,68.7,2,45,2z M52.5,26.6h6.7
				l-6.7,18.4V26.6z M51.9,49.5H48l3.3-17v16.9L51.9,49.5z M51.3,26.6l-3.5,17.9l-2.1-17.9H51.3z M45.1,30.9l2.2,18.6h-4.3
				L45.1,30.9z M44.4,26.6l-2.1,17.9l-3.5-17.9H44.4z M38.8,49.4V32.4l3.3,17h-3.9L38.8,49.4z M37.7,26.6v18.4L31,26.6H37.7z
				 M29,26.6h0.7l8.3,22.8c-1-0.7-7.7-6.4-10.7-20.9C27.2,27.5,28,26.6,29,26.6z M53.5,69.2H45h-8.4c-1.9,0-3.3-1.8-2.8-3.7
				l4.1-15.4H45h7.1l4.1,15.4C56.8,67.4,55.4,69.2,53.5,69.2z M62.6,28.5c-1.1,5.2-3.8,15.6-10.2,20.9H52l8.4-22.9H61
				C62,26.6,62.8,27.5,62.6,28.5z"/>
		</g>
	</g>
</g>
<g id="Camada_4">
</g>
<g id="Camada_5">
</g>
<g id="_x31_4_x2B_">
</g>
<g id="_x33_96">
</g>
<g id="_x36_9_x2B_">
</g>
</svg>
